<svg width="24" height="24" xmlns="http://www.w3.org/2000/svg"><g fill="none" fill-rule="evenodd"><path d="M5.324.283L5.24.29l-.141.02c-.38.074-.735.259-1.013.541l-2.21 2.21-.174.182c-1.716 1.908-1.895 4.7-.448 6.779l.432.61a51.07 51.07 0 0012.29 12.112 5.431 5.431 0 003.107.977l.28-.008a5.456 5.456 0 003.575-1.595l2.215-2.211.103-.114.056-.07.09-.123a1.945 1.945 0 00-.252-2.447l-4.178-4.178-.12-.108-.07-.056-.122-.089a1.95 1.95 0 00-2.426.242l-1.766 1.768-.085.077c-.239.203-.67.187-.936-.079l-4.18-4.18-.086-.096a.698.698 0 01-.125-.415l.007-.131a.698.698 0 01.206-.38l1.753-1.753.1-.11.057-.07.09-.124c.233-.351.322-.717.322-1.071l-.005-.127c-.05-.498-.225-.912-.57-1.253L6.843.845l-.112-.1-.07-.058-.122-.09A1.943 1.943 0 005.467.276l-.143.007zm.143 1.493c.087 0 .172.024.245.073l.07.057 4.18 4.182c.09.09.119.192.126.265l.003.048c0 .055-.01.15-.073.244l-.057.07L8.207 8.47a2.207 2.207 0 00-.642 1.374l-.009.196c0 .527.182 1.027.518 1.427l.133.145 4.18 4.181a2.226 2.226 0 003.015.118l.127-.118 1.755-1.757a.45.45 0 01.558-.056l.07.056 4.181 4.182c.151.15.17.386.057.558l-.057.07-2.219 2.215a3.931 3.931 0 01-2.556 1.154l-.235.007a3.93 3.93 0 01-2.25-.707A49.555 49.555 0 012.91 9.765l-.425-.6a3.941 3.941 0 01.306-4.89l.145-.153 2.218-2.216a.437.437 0 01.229-.122l.084-.008z" fill="#FFF" fill-rule="nonzero"/><path d="M0 0h24v24H0z"/></g></svg>