<svg xmlns="http://www.w3.org/2000/svg" width="24" height="24"><g fill="none" fill-rule="evenodd"><path d="M0 0h24v24H0z"/><path d="M3.5 3.914H3v-.5a.5.5 0 00-1 0v.5h-.5a.5.5 0 000 1H2v.5a.5.5 0 001 0v-.5h.5a.5.5 0 000-1m5.707 1.5l.354-.354a.5.5 0 00-.708-.707l-.353.354-.354-.354a.5.5 0 00-.707.707l.354.354-.354.354a.5.5 0 00.707.707L8.5 6.12l.353.354a.502.502 0 00.708 0 .5.5 0 000-.707l-.354-.354zm-3.639-2.5c-.276 0-.51-.224-.51-.5s.214-.5.49-.5h.02a.5.5 0 010 1m16 5c-.276 0-.51-.224-.51-.5s.214-.5.49-.5h.02a.5.5 0 010 1M4 22.364c0-.17.013-.334.025-.5H1.038c.275-1.764 2.014-2.695 3.952-2.933.239-.381.515-.738.825-1.061C2.891 17.926 0 19.32 0 22.364a.5.5 0 00.5.5h3.592a1.483 1.483 0 01-.092-.5m15-10.5c-1.103 0-2 .897-2 2s.897 2 2 2 2-.897 2-2-.897-2-2-2m0 5c-1.654 0-3-1.346-3-3s1.346-3 3-3 3 1.346 3 3-1.346 3-3 3m-14-5c-1.103 0-2 .897-2 2s.897 2 2 2 2-.897 2-2-.897-2-2-2m0 5c-1.654 0-3-1.346-3-3s1.346-3 3-3 3 1.346 3 3-1.346 3-3 3m13.185 1.006c.31.323.586.68.825 1.062 1.939.237 3.676 1.168 3.95 2.932h-2.985c.013.166.025.33.025.5 0 .176-.036.343-.091.5h3.59c.277 0 .5-.223.5-.5 0-3.044-2.89-4.438-5.814-4.494M6.027 22h11.878c-.25-2.247-2.16-4-4.473-4H10.5a4.507 4.507 0 00-4.473 4m12.405 1H5.5a.5.5 0 01-.5-.5c0-3.033 2.467-5.5 5.5-5.5h2.932c3.033 0 5.5 2.467 5.5 5.5a.5.5 0 01-.5.5m-6.499-13c-1.103 0-2 .897-2 2s.897 2 2 2 2-.897 2-2-.897-2-2-2m0 5c-1.654 0-3-1.346-3-3s1.346-3 3-3 3 1.346 3 3-1.346 3-3 3m4.191-13c-.308 0-.585.118-.725.258a.876.876 0 00-.313.645c-.021.345.104.714.31.92.455.562 1.336 1.346 2.082 1.955.475-.388 1.542-1.284 2.045-1.914a1.29 1.29 0 00.349-.96c-.009-.154-.056-.437-.271-.608a.409.409 0 01-.044-.039c-.168-.169-.54-.308-.925-.239a.917.917 0 00-.701.532c-.164.351-.741.351-.905 0a.915.915 0 00-.7-.532A1.076 1.076 0 0016.124 2zm1.355 4.866a.689.689 0 01-.434-.153c-.401-.32-1.753-1.426-2.393-2.224-.371-.368-.601-1.013-.564-1.644.032-.553.262-1.027.647-1.332.388-.394 1.097-.597 1.763-.48.381.066.714.228.98.471a1.94 1.94 0 01.982-.472c.66-.114 1.352.081 1.784.5.373.305.595.771.626 1.314.036.631-.194 1.276-.602 1.684-.607.762-1.956 1.864-2.354 2.182a.697.697 0 01-.435.154z" fill="#000" opacity=".6"/></g></svg>