<svg xmlns="http://www.w3.org/2000/svg" width="24" height="24"><path d="M21.5 24h-6a1.5 1.5 0 01-1.5-1.5v-7a.5.5 0 00-.5-.5h-3a.5.5 0 00-.5.5v7A1.5 1.5 0 018.5 24h-6A1.5 1.5 0 011 22.5V9.085a1.5 1.5 0 01.661-1.243l9.485-6.393a1.494 1.494 0 011.676 0l9.516 6.404c.414.28.662.746.662 1.245V22.5a1.5 1.5 0 01-1.5 1.5zm-11-10h3a1.5 1.5 0 011.5 1.5v7a.5.5 0 00.5.5h6a.5.5 0 00.5-.5V9.098a.502.502 0 00-.22-.415L12.262 2.28a.494.494 0 00-.558 0L2.22 8.67a.499.499 0 00-.22.414V22.5a.5.5 0 00.5.5h6a.5.5 0 00.5-.5v-7a1.5 1.5 0 011.5-1.5z" opacity=".6"/></svg>