<svg width="346" height="78" xmlns="http://www.w3.org/2000/svg"><g fill-rule="nonzero" fill="none"><path d="M65.17 17.8c5.64 0 10.21 2.49 12.2 6.06V20.7c0-1 .75-1.74 1.66-1.74h7.3c.91 0 1.66.75 1.66 1.74v36.6c0 .91-.75 1.66-1.66 1.66h-7.3c-.92 0-1.66-.75-1.66-1.66v-3.24c-2.07 3.57-6.64 6.06-12.28 6.06-10.37 0-20-8.3-20-21.24-.01-12.86 9.54-21.08 20.08-21.08zm1.49 32.45c6.22 0 10.7-4.98 10.7-11.29 0-6.22-4.48-11.2-10.7-11.2-6.14 0-10.79 4.98-10.79 11.2 0 6.31 4.65 11.29 10.79 11.29zM23.87 17.8c-5.73 0-10.29 2.49-12.61 6.06V20.7c0-1-.75-1.74-1.66-1.74H2.38c-.91 0-1.66.75-1.66 1.74L.64 73.68v-1.79 2.28c0 .91.75 1.66 1.66 1.66h7.39c.92 0 1.66-.75 1.66-1.66v-2.28 1.79l.08-19.21c2.41 3.65 7.39 5.64 12.28 5.64 10.62 0 19.92-8.3 19.92-21.24-.01-12.86-9.22-21.07-19.76-21.07zm-1.74 32.44c-6.14 0-10.79-4.98-10.79-11.29 0-6.22 4.65-11.2 10.79-11.2 6.22 0 10.71 4.98 10.71 11.2 0 6.32-4.49 11.29-10.71 11.29zm107.03-31.18h-7.84c-1.24 0-1.9.83-2.15 1.73l-3.44 11.95-5.01 15.53-8.39-27.48c-.25-.91-.82-1.73-1.81-1.73h-8.5c-1.9 0-2.06 1.24-1.73 2.56l12.05 35.58c.41 1.07 1.08 1.65 2.06 1.65h2.91l-5.58 14.42c-.58 1.57-.08 2.56 1.49 2.56h7.84c1.24 0 1.9-.83 2.15-1.73l.53-1.86 4.87-13.34 12.04-37.28c.57-1.57.08-2.56-1.49-2.56z" fill="#4341AA"/><path d="M201.82 18.3c.92 0 1.91.41 1.91 2.07v7.14c0 1.66-1.33 2.07-1.99 2.07h-1.99c-5.31 0-8.38 2.66-8.38 9.63v18.01c0 .92-.83 1.58-1.74 1.58h-7.3c-.91 0-1.66-.75-1.66-1.66v-36.6c0-1 .75-1.74 1.66-1.74h6.89c.91 0 1.66.66 1.66 1.58v3.81c2.07-3.57 5.56-5.89 9.79-5.89h1.15zm3.05-11.45c0-3.65 2.99-6.72 6.72-6.72 3.65 0 6.64 3.07 6.64 6.72s-2.99 6.72-6.64 6.72c-3.74 0-6.72-3.07-6.72-6.72zm3.07 51.94c-1 0-1.74-.83-1.74-1.74V20.54c0-1 .75-1.74 1.74-1.74h7.22c.99 0 1.74.75 1.74 1.74v36.51c0 .91-.75 1.74-1.74 1.74h-7.22zm136.98-5.89l-2.49-4.07c-.75-1.08-1.99-1.08-3.24-.33-1.41.91-2.82 1.25-3.82 1.25-1.91 0-4.56-1.16-4.56-5.15V27.76h11.62c.91 0 1.74-.83 1.74-1.74v-5.48c0-1-.83-1.74-1.74-1.74h-11.62v-8.41c0-1-.75-1.74-1.66-1.74h-7.3c-1 0-1.74.75-1.74 1.74v8.41h-5.48c-.92 0-1.66.75-1.66 1.74v5.48c0 .91.75 1.74 1.66 1.74h5.48v19.25c0 8.96 6.72 12.61 13.28 12.61 4.65 0 8.71-1.41 11.28-3.98.83-.83.91-1.74.25-2.74zm-91.26 5.81V53.4c-1.99 3.24-6.47 5.73-12.12 5.73-10.96 0-20.17-7.8-20.17-20.66s9.38-20.83 19.75-20.83c5.73 0 10.46 2.57 12.53 6.14v-3.24c0-.92.75-1.66 1.66-1.66h7.22c1 0 1.74.75 1.74 1.66v38.5c0 11.12-8.22 18.83-21.49 18.83-10.7 0-18.53-6.79-20.43-14.42-.25-.67-.08-1.41.83-1.66l7.9-.01c.99-.01 1.58.08 1.91.75.91 2.99 3.98 6.14 10.04 6.14 7.06 0 10.63-3.99 10.63-9.96zm-10.79-9.13c6.22 0 10.7-4.73 10.7-11.04 0-6.31-4.48-11.04-10.7-11.04-6.14 0-10.71 4.73-10.71 11.04.01 6.31 4.57 11.04 10.71 11.04zm-85.14-32.05c-5.72 0-10.37 2.57-12.36 5.89v-8.35l-.08-11.32c0-.92-.83-1.66-1.74-1.66h-7.22c-1 0-1.74.75-1.74 1.66l.08 11.32v41.96c0 .91.75 1.66 1.74 1.66h7.22c.91 0 1.66-.75 1.66-1.66v-3.24c2.33 3.57 6.64 6.06 12.28 6.06 10.54 0 20-8.3 20-21.24 0-12.86-9.55-21.08-19.84-21.08zm-1.74 32.45c-6.14 0-10.71-4.98-10.71-11.29 0-6.22 4.56-11.2 10.71-11.2 6.14 0 10.79 4.98 10.79 11.2 0 6.31-4.65 11.29-10.79 11.29zm138.45-32.45c-6.39 0-10.96 2.66-13.28 5.89V3.65c0-.91-.83-1.58-1.74-1.58h-7.3c-.91 0-1.66.75-1.66 1.66v53.28c0 .91.75 1.66 1.66 1.66h7.3c.91 0 1.74-.66 1.74-1.58V37.76c0-6.22 3.98-10.37 10.04-10.37 6.22 0 9.71 4.07 9.71 10.37v19.33c0 .92.83 1.58 1.74 1.58h7.22c.91 0 1.74-.66 1.74-1.58V34.85c.01-9.85-6.55-17.32-17.17-17.32z" fill="#08AF97"/></g></svg>