<svg xmlns="http://www.w3.org/2000/svg" width="24" height="24"><g fill="none" fill-rule="evenodd" opacity=".6"><g stroke="#000" stroke-linecap="round" stroke-linejoin="round"><path d="M16.84 5.868a1.457 1.457 0 102.913.075 1.457 1.457 0 00-2.912-.075z"/><path d="M22.536 10.953l.216-8.332a.969.969 0 00-.945-.995l-8.332-.216a.97.97 0 00-.695.267L.833 13.021a.97.97 0 00-.036 1.372l8.118 8.55a.972.972 0 001.373.034l11.947-11.345a.969.969 0 00.301-.679z"/></g><path fill="#000" fill-rule="nonzero" d="M14.009 9a.504.504 0 00-.354.146l-.35.35a2.579 2.579 0 00-1.286-.457 2.105 2.105 0 00-1.666.603c-1.047 1.046-.282 2.511.092 3.224.729 1.332.499 1.801.261 2.038a1.38 1.38 0 01-1.925-.176 3.434 3.434 0 01-.782-1.936.498.498 0 00-.778-.381.502.502 0 00-.22.45 4.59 4.59 0 00.763 2.177l-.36.36a.5.5 0 10.707.707l.351-.351c.423.296.927.458 1.443.463a2.107 2.107 0 001.508-.606c1.082-1.082.198-2.695-.087-3.217-.57-1.092-.646-1.666-.266-2.045.237-.23.563-.345.892-.313a1.63 1.63 0 011.033.488c.374.356.549.874.464 1.383a.503.503 0 00.764.523.49.49 0 00.215-.318 2.499 2.499 0 00-.425-1.9l.36-.359A.5.5 0 0014.009 9z"/></g></svg>