<?xml version="1.0" encoding="UTF-8"?>
<svg width="195px" height="178px" viewBox="0 0 195 178" version="1.1" xmlns="http://www.w3.org/2000/svg" xmlns:xlink="http://www.w3.org/1999/xlink">
    <!-- Generator: Sketch 55.2 (78181) - https://sketchapp.com -->
    <title>rotate-device</title>
    <desc>Created with Sketch.</desc>
    <g id="Workflows-INSIDE-Branding-Default" stroke="none" stroke-width="1" fill="none" fill-rule="evenodd">
        <g id="defaultchatv2/rotate-screen" transform="translate(-236.000000, -73.000000)" fill="#FFFFFF">
            <g id="rotate-device" transform="translate(236.000000, 73.000000)">
                <path d="M46.9333333,39 L130.933333,39 C135.351611,39 138.933333,42.581722 138.933333,47 L138.933333,208.866667 C138.933333,213.284945 135.351611,216.866667 130.933333,216.866667 L46.9333333,216.866667 C42.5150553,216.866667 38.9333333,213.284945 38.9333333,208.866667 L38.9333333,47 C38.9333333,42.581722 42.5150553,39 46.9333333,39 Z M47.9333333,54 L47.9333333,194 L129.933333,194 L129.933333,54 L47.9333333,54 Z M74.9333333,44 C73.8287638,44 72.9333333,44.8954305 72.9333333,46 L72.9333333,47 C72.9333333,48.1045695 73.8287638,49 74.9333333,49 L102.933333,49 C104.037903,49 104.933333,48.1045695 104.933333,47 L104.933333,46 C104.933333,44.8954305 104.037903,44 102.933333,44 L74.9333333,44 Z M88.4333333,211 C91.4708995,211 93.9333333,208.537566 93.9333333,205.5 C93.9333333,202.462434 91.4708995,200 88.4333333,200 C85.3957672,200 82.9333333,202.462434 82.9333333,205.5 C82.9333333,208.537566 85.3957672,211 88.4333333,211 Z" id="Device-in-Background" opacity="0.2" transform="translate(88.933333, 127.933333) rotate(-90.000000) translate(-88.933333, -127.933333) "></path>
                <path d="M103,5.68434189e-14 L187,5.68434189e-14 C191.418278,5.60317944e-14 195,3.581722 195,8 L195,169.866667 C195,174.284945 191.418278,177.866667 187,177.866667 L103,177.866667 C98.581722,177.866667 95,174.284945 95,169.866667 L95,8 C95,3.581722 98.581722,5.76550434e-14 103,5.68434189e-14 Z M104,15 L104,155 L186,155 L186,15 L104,15 Z M131,5 C129.895431,5 129,5.8954305 129,7 L129,8 C129,9.1045695 129.895431,10 131,10 L159,10 C160.104569,10 161,9.1045695 161,8 L161,7 C161,5.8954305 160.104569,5 159,5 L131,5 Z M144.5,172 C147.537566,172 150,169.537566 150,166.5 C150,163.462434 147.537566,161 144.5,161 C141.462434,161 139,163.462434 139,166.5 C139,169.537566 141.462434,172 144.5,172 Z" id="Rotating-Device"></path>
                <path d="M46.5207424,27.0004602 L46.5469397,30.2245602 C46.559508,31.7713408 44.8866013,32.7462773 43.5470057,31.9728614 L32.0000003,25.3061948 C30.6604048,24.5327789 30.6682711,22.5965309 32.0141066,21.8340251 L43.454276,15.3524039 C44.7812815,14.6005665 46.4277112,15.5511332 46.4401037,17.0762723 L46.4717341,20.9690188 C65.5010519,22.5908495 80.4401697,38.5508158 80.4401697,58 C80.4401697,59.6568542 79.097024,61 77.4401697,61 C75.7833155,61 74.4401697,59.6568542 74.4401697,58 C74.4401697,41.8836869 62.2076247,28.6244378 46.5207424,27.0004602 Z" id="Combined-Shape" fill-rule="nonzero" transform="translate(55.720085, 38.044833) scale(-1, 1) translate(-55.720085, -38.044833) "></path>
            </g>
        </g>
    </g>
</svg>