<svg xmlns="http://www.w3.org/2000/svg" width="24" height="24"><g fill="none" fill-rule="evenodd" opacity=".6"><path d="M0 0h24v24H0z"/><path fill="#000" fill-rule="nonzero" d="M1 22.5V6h3v1.5a.5.5 0 001 0V6h5v1.5a.5.5 0 001 0V6h3v5h1V5.5a.504.504 0 00-.146-.354A.504.504 0 0014.5 5H11V3.5a3.5 3.5 0 10-7 0V5H.5a.504.504 0 00-.354.146A.504.504 0 000 5.5v17A1.5 1.5 0 001.5 24H8v-1H1.5a.5.5 0 01-.5-.5zm4-19a2.5 2.5 0 015 0V5H5V3.5z"/><path fill="#000" fill-rule="nonzero" d="M23.5 12h-14a.504.504 0 00-.354.146A.504.504 0 009 12.5v10a1.5 1.5 0 001.5 1.5h12a1.5 1.5 0 001.5-1.5v-10a.504.504 0 00-.146-.354A.504.504 0 0023.5 12zM23 22.5a.5.5 0 01-.5.5h-12a.5.5 0 01-.5-.5V13h13v9.5z"/><path fill="#000" fill-rule="nonzero" d="M16.5 20a3.504 3.504 0 003.5-3.5v-1a.5.5 0 00-1 0v1a2.5 2.5 0 01-5 0v-1a.5.5 0 00-1 0v1a3.504 3.504 0 003.5 3.5z"/></g></svg>