<svg xmlns="http://www.w3.org/2000/svg" width="24" height="24"><g fill="none" fill-rule="evenodd"><path stroke="#231F20" stroke-linecap="round" stroke-linejoin="round" d="M13.5 17a6.5 6.5 0 1 1-13 0 6.5 6.5 0 0 1 13 0zm-12.929.429l6.856-6.856m-6.272 9.272l8.69-8.69M2.404 21.596l9.192-9.192M4.154 22.846l8.691-8.691m-6.327 9.327l6.964-6.964"/><path fill="#FFF" d="M12 .5a6.5 6.5 0 1 1 0 13 6.5 6.5 0 0 1 0-13"/><path stroke="#231F20" stroke-linecap="round" stroke-linejoin="round" d="M12 .5a6.5 6.5 0 1 1 0 13 6.5 6.5 0 0 1 0-13zm1.358 12.858L5.642 5.642m10.954 5.954L7.404 2.404m10.954 5.954L10.642.642"/><path fill="#FFF" d="M23.5 17a6.5 6.5 0 1 1-13 0 6.5 6.5 0 0 1 13 0"/><path stroke="#231F20" stroke-linecap="round" stroke-linejoin="round" d="M23.5 17a6.5 6.5 0 1 1-13 0 6.5 6.5 0 0 1 13 0z"/></g></svg>